<svg xmlns="http://www.w3.org/2000/svg" fill="none" viewBox="0 0 100 100"><path fill="#6B6B6B" d="M98.5 22.5c0 .1.1.3.1.4v21.3c0 .3-.1.5-.2.8q-.15.3-.6.6L79.9 55.9v20.4c0 .6-.3 1.1-.8 1.3L41.7 99.2c-.1 0-.2.1-.3.1h-.1c-.3.1-.5.1-.8 0 0 0-.1 0-.1-.1-.1 0-.2-.1-.3-.1L2.8 77.7q-.3-.15-.6-.6c-.1-.2-.2-.5-.2-.8v-64c0-.1 0-.3.1-.4 0 0 0-.1.1-.1 0-.1.1-.2.1-.2 0-.1.1-.1.1-.1 0-.1.1-.1.1-.2 0 0 .1-.1.2-.1s.1-.1.2-.1L21.5.2c.2-.1.5-.2.7-.2.3 0 .5.1.8.2L41.7 11c.1 0 .1.1.2.1s.1.1.2.1c.1.1.1.1.1.2l.1.1c0 .1.1.2.1.2s0 .1.1.1c0 .1.1.3.1.4v40l15.6-9V22.9c0-.1 0-.3.1-.4 0 0 0-.1.1-.1 0-.1.1-.2.1-.2 0-.1.1-.1.1-.1 0-.1.1-.1.1-.2 0 0 .1-.1.2-.1s.1-.1.2-.1l18.7-10.8c.2-.1.5-.2.8-.2s.5.1.8.2l18.7 10.8c.1 0 .1.1.2.1l.1.1c.1.1.1.1.1.2l.1.1c0 .1.1.2.1.2-.2 0-.2 0-.2.1m-3.1 20.8V25.6l-6.5 3.8-9 5.2v17.7zM76.7 75.4V57.7l-8.9 5.1-25.3 14.4v17.9zM5.1 15v60.4l34.3 19.7V77.2L21.5 67.1c-.1 0-.1-.1-.2-.1l-.1-.1c-.1 0-.1-.1-.1-.2s-.1-.1-.1-.2-.1-.1-.1-.2-.1-.1-.1-.2V24l-9-5.2zM22.2 3.4l-15.6 9 15.6 9 15.6-9zm8.1 55.9 9-5.2V15l-6.5 3.8-9 5.2v39zm48-45.4-15.6 9 15.6 9 15.6-9zm-1.6 20.7-9-5.2-6.5-3.8v17.7l9 5.2 6.5 3.8zM40.9 74.5l22.8-13L75.2 55l-15.6-9-17.9 10.3-16.3 9.4z"/></svg>