<svg xmlns="http://www.w3.org/2000/svg" fill="none" viewBox="0 0 100 100"><mask id="a" width="100" height="21" x="0" y="40" maskUnits="userSpaceOnUse" style="mask-type:luminance"><path fill="#fff" d="M100 40H0v20.3h100z"/></mask><g fill="#000" mask="url(#a)"><path d="M66.5 40h17.4v3.2H77v16.9h-3.5V43.2h-7.1V40zm-28.7 0v3.2h-14v5.2H35v3.2H23.9v5.3h14v3.2H20.4V40zm8.7 0H42l16.2 20.1h4.5L54.6 50l8.1-10h-4.5l-5.8 7.2zm4.7 14.4-2.3-2.8-6.9 8.6h4.5z"/><path fill-rule="evenodd" d="M20.5 60.1 4.3 40H0v20.1h3.5V44.3l12.7 15.8z" clip-rule="evenodd"/><path d="M84.7 60q-.45 0-.6-.3c-.1-.2-.3-.4-.3-.6s.1-.5.3-.6.4-.3.6-.3.5.1.6.3q.3.3.3.6c0 .2 0 .3-.1.5l-.3.3c-.2.1-.4.1-.5.1m5.9-8.5h1.5v5.9c0 .5-.1 1-.3 1.4s-.6.7-1 .9-.9.3-1.4.3-.9-.1-1.3-.3-.7-.4-.9-.8c-.2-.3-.3-.8-.3-1.3h1.5c0 .2.1.4.2.6s.2.3.4.4.4.1.6.1.5-.1.6-.2c.2-.1.3-.3.4-.5s.1-.4.1-.7v-5.8zm7.8 2.3c0-.4-.2-.6-.5-.8s-.7-.3-1.1-.3c-.3 0-.6 0-.8.1s-.4.2-.5.4-.2.4-.2.6 0 .3.1.5l.3.3c.1.1.3.2.5.2.2.1.3.1.5.2l.8.2.9.3c.3.1.6.3.8.5s.4.4.6.7c.1.3.2.6.2 1 0 .5-.1.9-.4 1.3s-.6.7-1.1.9-1.1.3-1.7.3c-.7 0-1.2-.1-1.7-.3s-.9-.5-1.1-.9c-.3-.4-.4-.9-.4-1.4H95c0 .3.1.5.3.7s.4.3.6.4c.3.1.6.1.9.1s.6-.1.9-.2.5-.2.6-.4.2-.4.2-.6-.1-.4-.2-.5-.3-.3-.5-.4-.5-.2-.8-.3l-1-.2c-.7-.2-1.3-.4-1.7-.8s-.6-.8-.6-1.4c0-.5.1-.9.4-1.3s.6-.7 1.1-.9 1-.3 1.6-.3 1.1.1 1.6.3.8.5 1.1.9.4.8.4 1.3h-1.5z"/></g></svg>