<svg xmlns="http://www.w3.org/2000/svg" fill="none" viewBox="0 0 100 100"><g clip-path="url(#a)"><path fill="#5F5F5F" d="M0 0h100v100H0z"/><path fill="#fff" d="M48 37h4.8v8.3h-13v36.8l-.3.1c-.5.1-6.6.1-8 0l-1.1-.1V45.3h-13V37zm36.6 41.3c-1.9 2-4 3.1-7.4 4.1-1.5.4-1.7.4-5.1.4-3.3 0-3.6 0-5.2-.4-4.2-1.1-7.6-3.2-9.9-6.2-.7-.8-1.7-2.6-1.7-2.8 0-.1.2-.2.4-.3s.6-.4 1-.6c.3-.2 1-.6 1.4-.8s1.6-.9 2.7-1.6c1.1-.6 2-1.2 2.1-1.2s.3.2.5.5c.9 1.6 3.1 3.6 4.7 4.3 1 .4 3.1.9 4.1.9.9 0 2.7-.4 3.6-.8 1-.5 1.5-.9 2.1-1.8.4-.6.5-.8.4-2 0-1.1-.1-1.4-.4-2-.9-1.4-2.1-2.2-6.9-4.3-5-2.2-7.2-3.5-9-5.3-1.3-1.3-1.6-1.7-2.5-3.3-1.1-2.1-1.2-2.8-1.2-5.9 0-2.2 0-2.9.3-3.7.3-1.1 1.4-3.3 1.9-3.8 1-1.2 1.4-1.5 2.1-2.1 2.1-1.8 5.4-2.9 8.6-3 .4 0 1.5.1 2.7.1 3.2.3 5.4 1 7.5 2.7 1.6 1.2 4 4.2 3.7 4.6-.2.2-6.4 4.4-6.8 4.5-.2.1-.4 0-.8-.4-2.1-2.5-3-3.1-5-3.2-1.5-.1-2.2.1-3.2.7-1 .7-1.5 1.7-1.5 3.2 0 2.1.8 3.1 3.8 4.6 1.9 1 3.6 1.7 3.7 1.7.2 0 4.2 2 5.2 2.6 4.9 2.9 6.9 5.8 7.4 10.9.1 3.7-.9 7.2-3.3 9.7"/></g><defs><clipPath id="a"><path fill="#fff" d="M0 0h100v100H0z"/></clipPath></defs></svg>